<?xml version="1.0" encoding="UTF-8"?>
<svg version="1.1" xmlns="http://www.w3.org/2000/svg" width="96" height="96">
<path d="M0 0 C31.68 0 63.36 0 96 0 C96 31.68 96 63.36 96 96 C64.32 96 32.64 96 0 96 C0 64.32 0 32.64 0 0 Z M5 4 C5 32.71 5 61.42 5 91 C33.71 91 62.42 91 92 91 C92 62.29 92 33.58 92 4 C63.29 4 34.58 4 5 4 Z " fill="#000000" transform="translate(0,0)"/>
<path d="M0 0 C1.7043457 1.05981445 1.7043457 1.05981445 3 3 C3.26153286 5.51727719 3.3497922 7.78103966 3.29296875 10.29296875 C3.28872391 10.99899734 3.28447906 11.70502594 3.28010559 12.43244934 C3.26333034 14.68452303 3.22568243 16.93569742 3.1875 19.1875 C3.17245157 20.71548185 3.15876344 22.24347776 3.14648438 23.77148438 C3.11343089 27.51466872 3.06165832 31.25718196 3 35 C1.35 35 -0.3 35 -2 35 C-2.33 28.73 -2.66 22.46 -3 16 C-5.31 15.67 -7.62 15.34 -10 15 C-10.33 12.69 -10.66 10.38 -11 8 C-8.69 7.01 -6.38 6.02 -4 5 C-4.66 5 -5.32 5 -6 5 C-7.32 5 -8.64 5 -10 5 C-9.625 3.0625 -9.625 3.0625 -9 1 C-5.95016004 -0.52491998 -3.3576631 -0.23562548 0 0 Z M-5 9 C-5.66 9.66 -6.32 10.32 -7 11 C-5.68 11.33 -4.36 11.66 -3 12 C-2.67 11.01 -2.34 10.02 -2 9 C-2.99 9 -3.98 9 -5 9 Z " fill="#000000" transform="translate(36,23)"/>
<path d="M0 0 C1.65 0 3.3 0 5 0 C5.33 1.65 5.66 3.3 6 5 C6.928125 4.9175 7.85625 4.835 8.8125 4.75 C12 5 12 5 13.875 6.5 C15.48348047 10.07440105 15.6630968 13.14772335 15 17 C13.6875 19.5 13.6875 19.5 11 21 C7.26593557 21.32236527 3.76274489 21.17917833 0 21 C0 14.07 0 7.14 0 0 Z M6 9 C4.64381501 10.12534105 4.64381501 10.12534105 4.9375 13.0625 C4.958125 14.031875 4.97875 15.00125 5 16 C6.94603274 16.59070014 6.94603274 16.59070014 9 17 C10.41577477 15.81575674 10.41577477 15.81575674 10.0625 12.4375 C10.041875 11.303125 10.02125 10.16875 10 9 C8.68 9 7.36 9 6 9 Z " fill="#000000" transform="translate(41,18)"/>
<path d="M0 0 C1.65 0 3.3 0 5 0 C5.33 1.65 5.66 3.3 6 5 C8.31 5.33 10.62 5.66 13 6 C15.22597431 10.32100896 15.13071827 13.30317025 14 18 C12.8046875 19.69921875 12.8046875 19.69921875 11 21 C7.29631297 21.40199208 3.73655831 21.13187853 0 21 C0 14.07 0 7.14 0 0 Z M5 9 C5 11.31 5 13.62 5 16 C6.94603274 16.59070014 6.94603274 16.59070014 9 17 C10.35618499 15.87465895 10.35618499 15.87465895 10.0625 12.9375 C10.041875 11.968125 10.02125 10.99875 10 10 C8.35 9.67 6.7 9.34 5 9 Z " fill="#000000" transform="translate(57,37)"/>
<path d="M0 0 C2.35119399 3.52679099 2.21443452 5.02879485 2.125 9.1875 C2.10695313 10.27417969 2.08890625 11.36085938 2.0703125 12.48046875 C2.03550781 13.72763672 2.03550781 13.72763672 2 15 C0.04196493 15.05389087 -1.91648909 15.09274217 -3.875 15.125 C-5.51082031 15.15980469 -5.51082031 15.15980469 -7.1796875 15.1953125 C-10 15 -10 15 -12 13 C-12.25 10.5 -12.25 10.5 -12 8 C-9.23776722 5.23776722 -6.79293383 5.42143709 -3 5 C-3 4.34 -3 3.68 -3 3 C-3.86625 3.495 -3.86625 3.495 -4.75 4 C-7 5 -7 5 -11 5 C-10.67 3.35 -10.34 1.7 -10 0 C-6.23918426 -1.25360525 -3.84551868 -0.83902226 0 0 Z M-7 9 C-6.67 9.99 -6.34 10.98 -6 12 C-5.01 11.67 -4.02 11.34 -3 11 C-3 10.34 -3 9.68 -3 9 C-4.32 9 -5.64 9 -7 9 Z " fill="#000000" transform="translate(69,62)"/>
<path d="M0 0 C3.625 0.1875 3.625 0.1875 6.625 2.1875 C6.91796875 5.4453125 6.91796875 5.4453125 6.8125 9.3125 C6.78542969 10.59382813 6.75835937 11.87515625 6.73046875 13.1953125 C6.69566406 14.18273438 6.66085938 15.17015625 6.625 16.1875 C4.83366022 16.24141993 3.04186101 16.28025571 1.25 16.3125 C0.25226562 16.33570312 -0.74546875 16.35890625 -1.7734375 16.3828125 C-4.375 16.1875 -4.375 16.1875 -6.375 14.1875 C-6.5 11.0625 -6.5 11.0625 -6.375 8.1875 C-3.735 7.1975 -1.095 6.2075 1.625 5.1875 C-1.015 5.1875 -3.655 5.1875 -6.375 5.1875 C-3.97168508 0.22064917 -3.97168508 0.22064917 0 0 Z M-2.375 10.1875 C-2.375 10.8475 -2.375 11.5075 -2.375 12.1875 C-0.725 11.8575 0.925 11.5275 2.625 11.1875 C2.625 10.5275 2.625 9.8675 2.625 9.1875 C-0.3004644 8.9638932 -0.3004644 8.9638932 -2.375 10.1875 Z " fill="#000000" transform="translate(47.375,41.8125)"/>
<path d="M0 0 C1.32 0 2.64 0 4 0 C4 6.93 4 13.86 4 21 C2.68 21 1.36 21 0 21 C0 14.07 0 7.14 0 0 Z " fill="#000000" transform="translate(19,18)"/>
<path d="M0 0 C1.65 0 3.3 0 5 0 C5 5.28 5 10.56 5 16 C3.35 16 1.7 16 0 16 C0 10.72 0 5.44 0 0 Z " fill="#000000" transform="translate(73,61)"/>
<path d="M0 0 C0.99 0.33 1.98 0.66 3 1 C3 2.32 3 3.64 3 5 C1.35 5 -0.3 5 -2 5 C-2 3.68 -2 2.36 -2 1 C-1.34 0.67 -0.68 0.34 0 0 Z " fill="#000000" transform="translate(75,55)"/>
<path d="M0 0 C2 1 2 1 2 1 Z " fill="#000000" transform="translate(64,59)"/>
<path d="" fill="#000000" transform="translate(0,0)"/>
<path d="" fill="#000000" transform="translate(0,0)"/>
</svg>
